<?xml version="1.0" encoding="utf-8"?>
<!-- Generator: Adobe Illustrator 27.5.0, SVG Export Plug-In . SVG Version: 6.00 Build 0)  -->
<svg version="1.1" id="Layer_1" xmlns="http://www.w3.org/2000/svg" xmlns:xlink="http://www.w3.org/1999/xlink" x="0px" y="0px"
	 viewBox="0 0 100 100" style="enable-background:new 0 0 100 100;" xml:space="preserve">
<style type="text/css">
	.st0{fill:#262694;}
</style>
<g>
	<path class="st0" d="M92,33.6c-1.1-0.7-2.4-1-3.6-1h-17h-0.7H11.5c-1.3,0-2.6,0.3-3.7,1c-2.2,1.4-3.3,4-2.9,6.4l7.2,34.8
		c0.7,5.7,5.6,9.9,11.3,9.9H41c1.4,0,2.7-0.6,3.7-1.6l3.1-5.6c0.5-1,1.6-1.7,2.7-1.7c1.3,0,2.4,0.8,2.8,2.1l1.9,4.7
		c0.9,1.4,2.5,2.2,4.1,2.2h17.2c5.7,0,10.5-4.3,11.3-9.9l7-34.9C95.3,37.6,94.2,35.1,92,33.6z M83.6,62.3c-1.8,1.2-4.3,1.8-7.7,1.8
		c-3,0-5.4-0.6-7.1-1.9c-0.7-0.5-1.3-1.1-1.8-1.8c-0.3,0.5-0.7,0.9-1.1,1.3C64.1,63.3,61.8,64,59,64c-1.1,0-2.1-0.1-3.2-0.4
		c-1-0.3-2-0.7-3-1.2c-0.3,0.4-0.6,0.7-0.8,0.8s-0.5,0.2-0.8,0.2c-0.6,0-1.1-0.2-1.4-0.6c-0.4-0.4-0.5-1.1-0.5-2v-2.7
		c0-1,0.2-1.6,0.5-2c0.4-0.4,0.8-0.6,1.4-0.6c0.5,0,0.8,0.1,1.2,0.4c0.3,0.2,0.5,0.7,0.7,1.2c0.2,0.6,0.3,1,0.5,1.2
		c0.4,0.4,1,0.8,2,1.2c0.9,0.4,2,0.6,3.1,0.6c1.7,0,3.2-0.4,4.3-1.2c0.7-0.5,1.1-1.1,1.1-1.9c0-0.5-0.2-1-0.5-1.4s-0.9-0.8-1.7-1.1
		c-0.5-0.2-1.6-0.5-3.4-0.8c-2.1-0.4-3.7-0.9-4.8-1.5s-2-1.4-2.6-2.4s-1-2.1-1-3.3c0-1.9,0.8-3.6,2.3-5c1.6-1.4,3.6-2.1,6.1-2.1
		c1,0,1.9,0.1,2.8,0.3c0.9,0.2,1.6,0.6,2.3,1c0.5-0.5,1-0.8,1.5-0.8c0.6,0,1,0.2,1.4,0.6c0.4,0.4,0.5,1.1,0.5,2v3c0,1-0.2,1.6-0.5,2
		c-0.4,0.4-0.8,0.6-1.4,0.6c-0.5,0-0.9-0.1-1.3-0.4c-0.3-0.2-0.5-0.7-0.6-1.3c-0.1-0.7-0.3-1.1-0.5-1.4c-0.4-0.5-0.9-0.9-1.7-1.2
		c-0.7-0.3-1.6-0.5-2.6-0.5c-1.4,0-2.5,0.3-3.3,1s-1.2,1.4-1.2,2.1c0,0.5,0.2,1,0.5,1.4c0.3,0.5,0.8,0.8,1.5,1.1
		c0.4,0.2,1.6,0.5,3.6,0.9s3.5,0.8,4.6,1.3c0.6,0.3,1.1,0.6,1.6,1c0.4-1.5,1.2-2.9,2.4-4c1.9-1.9,4.3-2.8,7.3-2.8
		c1.1,0,2.1,0.1,3,0.3s1.8,0.5,2.6,0.9c0.5-0.5,1-0.7,1.4-0.7c0.6,0,1,0.2,1.4,0.6c0.4,0.4,0.5,1.1,0.5,2V51c0,1-0.2,1.6-0.5,2
		c-0.4,0.4-0.8,0.6-1.4,0.6c-0.5,0-1-0.2-1.4-0.5c-0.3-0.2-0.5-0.7-0.6-1.4c-0.2-0.7-0.5-1.2-1.1-1.6c-1-0.6-2.3-0.9-3.9-0.9
		c-1.8,0-3.3,0.5-4.4,1.6s-1.7,2.5-1.7,4.2c0,1.5,0.5,2.8,1.6,3.7s2.8,1.3,5.3,1.3c1.6,0,3-0.2,4-0.5c0.6-0.2,1.2-0.6,1.7-1.1
		s1-0.7,1.5-0.7s1,0.2,1.4,0.6c0.4,0.4,0.6,0.9,0.6,1.4C85.4,60.7,84.8,61.6,83.6,62.3z"/>
	<path class="st0" d="M32.7,26.1c1.7-3.6,2.5-5,5.5-5h23.5c3.1,0,4.5,1.4,5.5,5l0.9,3.4h6.2l-0.6-6.2c0-4.4-4.6-8-9-8H35.2
		c-4.4,0-9,3.6-9,8l-0.6,6.2h6.2L32.7,26.1z"/>
</g>
</svg>
